REM DIRINDEX 1\2\5,1\2\6,1\2\7,1\2\8,1\3\9,1\3\10,1\3\11,1\4\12,1\4\13,1\4\14,1\4\15,1\4\16
REM DIRNAME folder01,folder02,folder03,folder04,folder05,folder06,folder07,folder08,folder09,folder10,folder11,folder12,folder13,folder14,folder15,folder16
TITLE ""
FILE "1200_sec03_0872_0880.mp3" MP3
  TRACK 01 AUDIO
    TITLE "0:"
    INDEX 01 00:00:00
  TRACK 02 AUDIO
    TITLE "12:cjc034_07160"
    INDEX 01 00:00:17
  TRACK 03 AUDIO
    TITLE "0:"
    INDEX 01 00:01:28
  TRACK 04 AUDIO
    TITLE "13:cjc034_07161"
    INDEX 01 00:01:62
  TRACK 05 AUDIO
    TITLE "0:"
    INDEX 01 00:05:24
  TRACK 06 AUDIO
    TITLE "14:cjc034_07162"
    INDEX 01 00:05:56
  TRACK 07 AUDIO
    TITLE "0:"
    INDEX 01 00:06:65
  TRACK 08 AUDIO
    TITLE "15:cjc034_07163"
    INDEX 01 00:07:27
  TRACK 09 AUDIO
    TITLE "0:"
    INDEX 01 00:10:51
  TRACK 10 AUDIO
    TITLE "12:cjc034_07164"
    INDEX 01 00:12:12
  TRACK 11 AUDIO
    TITLE "0:"
    INDEX 01 00:13:26
  TRACK 12 AUDIO
    TITLE "13:cjc034_07165"
    INDEX 01 00:13:63
  TRACK 13 AUDIO
    TITLE "0:"
    INDEX 01 00:16:14
  TRACK 14 AUDIO
    TITLE "14:cjc034_07166"
    INDEX 01 00:16:46
  TRACK 15 AUDIO
    TITLE "0:"
    INDEX 01 00:17:61
  TRACK 16 AUDIO
    TITLE "15:cjc034_07167"
    INDEX 01 00:18:21
  TRACK 17 AUDIO
    TITLE "0:"
    INDEX 01 00:21:53
  TRACK 18 AUDIO
    TITLE "12:cjc034_07168"
    INDEX 01 00:23:14
  TRACK 19 AUDIO
    TITLE "0:"
    INDEX 01 00:24:51
  TRACK 20 AUDIO
    TITLE "13:cjc034_07169"
    INDEX 01 00:25:11
  TRACK 21 AUDIO
    TITLE "0:"
    INDEX 01 00:26:24
  TRACK 22 AUDIO
    TITLE "14:cjc034_07170"
    INDEX 01 00:26:54
  TRACK 23 AUDIO
    TITLE "0:"
    INDEX 01 00:28:19
  TRACK 24 AUDIO
    TITLE "15:cjc034_07171"
    INDEX 01 00:28:59
  TRACK 25 AUDIO
    TITLE "0:"
    INDEX 01 00:32:62
  TRACK 26 AUDIO
    TITLE "12:cjc034_07172"
    INDEX 01 00:34:20
  TRACK 27 AUDIO
    TITLE "0:"
    INDEX 01 00:35:27
  TRACK 28 AUDIO
    TITLE "13:cjc034_07173"
    INDEX 01 00:35:61
  TRACK 29 AUDIO
    TITLE "0:"
    INDEX 01 00:38:08
  TRACK 30 AUDIO
    TITLE "14:cjc034_07174"
    INDEX 01 00:38:41
  TRACK 31 AUDIO
    TITLE "0:"
    INDEX 01 00:39:47
  TRACK 32 AUDIO
    TITLE "15:cjc034_07175"
    INDEX 01 00:40:07
  TRACK 33 AUDIO
    TITLE "0:"
    INDEX 01 00:43:27
  TRACK 34 AUDIO
    TITLE "12:cjc034_07176"
    INDEX 01 00:44:71
  TRACK 35 AUDIO
    TITLE "0:"
    INDEX 01 00:46:11
  TRACK 36 AUDIO
    TITLE "13:cjc034_07177"
    INDEX 01 00:46:45
  TRACK 37 AUDIO
    TITLE "0:"
    INDEX 01 00:48:61
  TRACK 38 AUDIO
    TITLE "14:cjc034_07178"
    INDEX 01 00:49:27
  TRACK 39 AUDIO
    TITLE "0:"
    INDEX 01 00:50:42
  TRACK 40 AUDIO
    TITLE "15:cjc034_07179"
    INDEX 01 00:51:03
  TRACK 41 AUDIO
    TITLE "0:"
    INDEX 01 00:55:16
  TRACK 42 AUDIO
    TITLE "12:cjc034_07180"
    INDEX 01 00:56:61
  TRACK 43 AUDIO
    TITLE "0:"
    INDEX 01 00:57:66
  TRACK 44 AUDIO
    TITLE "13:cjc034_07181"
    INDEX 01 00:58:26
  TRACK 45 AUDIO
    TITLE "0:"
    INDEX 01 01:00:23
  TRACK 46 AUDIO
    TITLE "14:cjc034_07182"
    INDEX 01 01:00:68
  TRACK 47 AUDIO
    TITLE "0:"
    INDEX 01 01:01:74
  TRACK 48 AUDIO
    TITLE "15:cjc034_07183"
    INDEX 01 01:02:36
  TRACK 49 AUDIO
    TITLE "0:"
    INDEX 01 01:07:19
  TRACK 50 AUDIO
    TITLE "16:cjc034_07184"
    INDEX 01 01:08:52
  TRACK 51 AUDIO
    TITLE "0:"
    INDEX 01 01:12:50
  TRACK 52 AUDIO
    TITLE "12:cjc034_07185"
    INDEX 01 01:13:55
  TRACK 53 AUDIO
    TITLE "0:"
    INDEX 01 01:14:47
  TRACK 54 AUDIO
    TITLE "13:cjc034_07186"
    INDEX 01 01:15:25
  TRACK 55 AUDIO
    TITLE "0:"
    INDEX 01 01:17:55
  TRACK 56 AUDIO
    TITLE "14:cjc034_07187"
    INDEX 01 01:18:11
  TRACK 57 AUDIO
    TITLE "0:"
    INDEX 01 01:19:03
  TRACK 58 AUDIO
    TITLE "15:cjc034_07188"
    INDEX 01 01:19:56
  TRACK 59 AUDIO
    TITLE "0:"
    INDEX 01 01:23:07
  TRACK 60 AUDIO
    TITLE "12:cjc034_07189"
    INDEX 01 01:24:61
  TRACK 61 AUDIO
    TITLE "0:"
    INDEX 01 01:25:58
  TRACK 62 AUDIO
    TITLE "13:cjc034_07190"
    INDEX 01 01:26:15
  TRACK 63 AUDIO
    TITLE "0:"
    INDEX 01 01:28:45
  TRACK 64 AUDIO
    TITLE "14:cjc034_07191"
    INDEX 01 01:29:03
  TRACK 65 AUDIO
    TITLE "0:"
    INDEX 01 01:29:74
  TRACK 66 AUDIO
    TITLE "15:cjc034_07192"
    INDEX 01 01:30:32
  TRACK 67 AUDIO
    TITLE "0:"
    INDEX 01 01:34:61
  TRACK 68 AUDIO
    TITLE "12:cjc034_07193"
    INDEX 01 01:36:21
  TRACK 69 AUDIO
    TITLE "0:"
    INDEX 01 01:37:50
  TRACK 70 AUDIO
    TITLE "13:cjc034_07194"
    INDEX 01 01:38:10
  TRACK 71 AUDIO
    TITLE "0:"
    INDEX 01 01:39:39
  TRACK 72 AUDIO
    TITLE "14:cjc034_07195"
    INDEX 01 01:39:70
  TRACK 73 AUDIO
    TITLE "0:"
    INDEX 01 01:41:26
  TRACK 74 AUDIO
    TITLE "15:cjc034_07196"
    INDEX 01 01:41:59
  TRACK 75 AUDIO
    TITLE "0:"
    INDEX 01 01:44:46
